<svg width="15" height="15" viewBox="0 0 15 15" fill="none" xmlns="http://www.w3.org/2000/svg">
<path d="M7.49976 2.99988C7.69867 2.99988 7.88943 3.0789 8.03009 3.21955C8.17074 3.3602 8.24976 3.55097 8.24976 3.74988V8.24988C8.24976 8.44879 8.17074 8.63955 8.03009 8.78021C7.88943 8.92086 7.69867 8.99988 7.49976 8.99988C7.30084 8.99988 7.11008 8.92086 6.96943 8.78021C6.82877 8.63955 6.74976 8.44879 6.74976 8.24988V3.74988C6.74976 3.55097 6.82877 3.3602 6.96943 3.21955C7.11008 3.0789 7.30084 2.99988 7.49976 2.99988ZM7.49976 10.4999C7.30084 10.4999 7.11008 10.5789 6.96943 10.7195C6.82877 10.8602 6.74976 11.051 6.74976 11.2499C6.74976 11.4488 6.82877 11.6396 6.96943 11.7802C7.11008 11.9209 7.30084 11.9999 7.49976 11.9999C7.69867 11.9999 7.88943 11.9209 8.03009 11.7802C8.17074 11.6396 8.24976 11.4488 8.24976 11.2499C8.24976 11.051 8.17074 10.8602 8.03009 10.7195C7.88943 10.5789 7.69867 10.4999 7.49976 10.4999Z" fill="#F50000"/>
<path fill-rule="evenodd" clip-rule="evenodd" d="M7.5 0C3.35775 0 0 3.35775 0 7.5C0 11.6423 3.35775 15 7.5 15C11.6423 15 15 11.6423 15 7.5C15 3.35775 11.6423 0 7.5 0ZM1.5 7.5C1.5 9.0913 2.13214 10.6174 3.25736 11.7426C4.38258 12.8679 5.9087 13.5 7.5 13.5C9.0913 13.5 10.6174 12.8679 11.7426 11.7426C12.8679 10.6174 13.5 9.0913 13.5 7.5C13.5 5.9087 12.8679 4.38258 11.7426 3.25736C10.6174 2.13214 9.0913 1.5 7.5 1.5C5.9087 1.5 4.38258 2.13214 3.25736 3.25736C2.13214 4.38258 1.5 5.9087 1.5 7.5Z" fill="#F50000"/>
</svg>
